<mxfile host="65bd71144e" modified="2021-02-02T11:10:31.864Z" agent="5.0 (Macintosh; Intel Mac OS X 11_0_0) AppleWebKit/537.36 (KHTML, like Gecko) Code/1.52.1 Chrome/83.0.4103.122 Electron/9.3.5 Safari/537.36" etag="3DQg5Tyc5uMNCRgoSX6D" version="13.10.0" type="embed">
    <diagram id="YtbaztETSH9XTboItXar" name="Page-1">
        <mxGraphModel dx="1607" dy="549" grid="1" gridSize="10" guides="1" tooltips="1" connect="1" arrows="1" fold="1" page="1" pageScale="1" pageWidth="827" pageHeight="1169" math="0" shadow="0">
            <root>
                <mxCell id="0"/>
                <mxCell id="1" parent="0"/>
                <mxCell id="11" value="" style="rounded=0;whiteSpace=wrap;html=1;fillColor=#F0EAE4;" parent="1" vertex="1">
                    <mxGeometry x="-710" y="780" width="380" height="310" as="geometry"/>
                </mxCell>
                <mxCell id="3" value="1" style="rounded=0;whiteSpace=wrap;html=1;fillColor=#a20025;strokeColor=#6F0000;fontColor=#ffffff;fontStyle=1;fontSize=30;" parent="1" vertex="1">
                    <mxGeometry x="-640" y="820" width="40" height="50" as="geometry"/>
                </mxCell>
                <mxCell id="4" value="2" style="rounded=0;whiteSpace=wrap;html=1;fillColor=#a20025;strokeColor=#6F0000;fontColor=#ffffff;fontStyle=1;fontSize=30;" parent="1" vertex="1">
                    <mxGeometry x="-640" y="905" width="40" height="60" as="geometry"/>
                </mxCell>
                <mxCell id="5" value="3" style="rounded=0;whiteSpace=wrap;html=1;fillColor=#a20025;strokeColor=#6F0000;fontColor=#ffffff;fontStyle=1;fontSize=30;" parent="1" vertex="1">
                    <mxGeometry x="-470" y="970" width="40" height="60" as="geometry"/>
                </mxCell>
                <mxCell id="8" value="********" style="strokeWidth=1;shadow=0;dashed=0;align=center;html=1;shape=mxgraph.mockup.forms.pwField;strokeColor=#999999;mainText=;align=left;fontColor=#666666;fontSize=17;spacingLeft=3;" parent="1" vertex="1">
                    <mxGeometry x="-590" y="870" width="150" height="30" as="geometry"/>
                </mxCell>
                <mxCell id="9" value="********" style="strokeWidth=1;shadow=0;dashed=0;align=center;html=1;shape=mxgraph.mockup.forms.pwField;strokeColor=#999999;mainText=;align=left;fontColor=#666666;fontSize=17;spacingLeft=3;" parent="1" vertex="1">
                    <mxGeometry x="-590" y="930" width="150" height="30" as="geometry"/>
                </mxCell>
                <mxCell id="10" value="Option 1" style="strokeWidth=1;shadow=0;dashed=0;align=center;html=1;shape=mxgraph.mockup.forms.rrect;rSize=0;fillColor=#eeeeee;strokeColor=#999999;gradientColor=#cccccc;align=left;spacingLeft=4;fontSize=17;fontColor=#666666;labelPosition=right;" parent="1" vertex="1">
                    <mxGeometry x="-570" y="980" width="15" height="15" as="geometry"/>
                </mxCell>
            </root>
        </mxGraphModel>
    </diagram>
</mxfile>
